<svg width="159" height="159" viewBox="0 0 159 159" fill="none" xmlns="http://www.w3.org/2000/svg">
<path fill-rule="evenodd" clip-rule="evenodd" d="M159 79.5C159 123.407 123.407 159 79.5 159C35.5934 159 0 123.407 0 79.5C0 35.5934 35.5934 0 79.5 0C123.407 0 159 35.5934 159 79.5ZM132.404 116.29C125.355 119.481 117.492 121.411 109.149 121.746C76.9874 123.036 49.8783 100.131 48.5989 70.5862C47.5985 47.4861 62.6846 27.1665 84.686 18.7845C71.9287 18.8429 58.899 22.4731 47.3468 29.9631C17.3529 49.4095 8.67566 87.5106 27.9656 115.064C47.2554 142.617 87.2078 149.189 117.202 129.743C123.115 125.909 128.199 121.35 132.404 116.29Z" fill="#04A777"/>
</svg>
